<?xml version="1.0" encoding="UTF-8" standalone="no"?>
<!-- Created with Inkscape (http://www.inkscape.org/) -->

<svg
   xmlns:dc="http://purl.org/dc/elements/1.1/"
   xmlns:cc="http://creativecommons.org/ns#"
   xmlns:rdf="http://www.w3.org/1999/02/22-rdf-syntax-ns#"
   xmlns:svg="http://www.w3.org/2000/svg"
   xmlns="http://www.w3.org/2000/svg"
   xmlns:sodipodi="http://sodipodi.sourceforge.net/DTD/sodipodi-0.dtd"
   xmlns:inkscape="http://www.inkscape.org/namespaces/inkscape"
   version="1.1"
   id="svg2"
   xml:space="preserve"
   width="384"
   height="240"
   viewBox="0 0 384 240"
   sodipodi:docname="LemmasSensedAllPoints.pdf"
   inkscape:version="0.92.3 (2405546, 2018-03-11)"><metadata
     id="metadata8"><rdf:RDF><cc:Work
         rdf:about=""><dc:format>image/svg+xml</dc:format><dc:type
           rdf:resource="http://purl.org/dc/dcmitype/StillImage" /><dc:title></dc:title></cc:Work></rdf:RDF></metadata><defs
     id="defs6"><clipPath
       clipPathUnits="userSpaceOnUse"
       id="clipPath26"><path
         d="M 26.211,0 H 264.878 V 179 H 26.211 Z"
         id="path24"
         inkscape:connector-curvature="0" /></clipPath><clipPath
       clipPathUnits="userSpaceOnUse"
       id="clipPath42"><path
         d="M 26.211,0 H 264.878 V 179 H 26.211 Z"
         id="path40"
         inkscape:connector-curvature="0" /></clipPath><clipPath
       clipPathUnits="userSpaceOnUse"
       id="clipPath58"><path
         d="M 26.211,0 H 264.878 V 179 H 26.211 Z"
         id="path56"
         inkscape:connector-curvature="0" /></clipPath><clipPath
       clipPathUnits="userSpaceOnUse"
       id="clipPath74"><path
         d="M 26.211,0 H 264.878 V 179 H 26.211 Z"
         id="path72"
         inkscape:connector-curvature="0" /></clipPath><clipPath
       clipPathUnits="userSpaceOnUse"
       id="clipPath90"><path
         d="M 26.211,0 H 264.878 V 179 H 26.211 Z"
         id="path88"
         inkscape:connector-curvature="0" /></clipPath><clipPath
       clipPathUnits="userSpaceOnUse"
       id="clipPath106"><path
         d="M 0,180 H 288 V 0 H 0 Z"
         id="path104"
         inkscape:connector-curvature="0" /></clipPath></defs><sodipodi:namedview
     pagecolor="#ffffff"
     bordercolor="#666666"
     borderopacity="1"
     objecttolerance="10"
     gridtolerance="10"
     guidetolerance="10"
     inkscape:pageopacity="0"
     inkscape:pageshadow="2"
     inkscape:window-width="2560"
     inkscape:window-height="1346"
     id="namedview4"
     showgrid="false"
     inkscape:zoom="3.9333333"
     inkscape:cx="192"
     inkscape:cy="120"
     inkscape:window-x="-11"
     inkscape:window-y="-11"
     inkscape:window-maximized="1"
     inkscape:current-layer="g10" /><g
     id="g10"
     inkscape:groupmode="layer"
     inkscape:label="LemmasSensedAllPoints"
     transform="matrix(1.3333333,0,0,-1.3333333,0,240)"><g
       id="g12"
       transform="translate(50.6748,35.7998)"><path
         d="M 0,0 200.48,0.299"
         style="fill:none;stroke:#000000;stroke-width:1;stroke-linecap:butt;stroke-linejoin:miter;stroke-miterlimit:4;stroke-dasharray:none;stroke-opacity:1"
         id="path14"
         inkscape:connector-curvature="0" /></g><text
       transform="matrix(1,0,0,-1,240.7412,27.0967)"
       style="font-variant:normal;font-weight:bold;font-stretch:normal;font-size:12px;font-family:'Script MT Bold';-inkscape-font-specification:ScriptMTBold;writing-mode:lr-tb;fill:#000000;fill-opacity:1;fill-rule:nonzero;stroke:none"
       id="text18"><tspan
         x="0"
         y="0"
         id="tspan16">n</tspan></text>
<g
       id="g20"><g
         id="g22"
         clip-path="url(#clipPath26)"><g
           id="g28"
           transform="translate(37.25,136.9346)"><path
             d="M 0,0 C 0,0 34.01,-28.043 71.6,-31.026 109.189,-34.01 207.64,-41.17 207.64,-41.17"
             style="fill:none;stroke:#000000;stroke-width:1;stroke-linecap:butt;stroke-linejoin:miter;stroke-miterlimit:4;stroke-dasharray:none;stroke-opacity:1"
             id="path30"
             inkscape:connector-curvature="0" /></g></g></g><text
       transform="matrix(1,0,0,-1,235,99.5059)"
       style="font-variant:normal;font-weight:bold;font-stretch:normal;font-size:12px;font-family:'Script MT Bold';-inkscape-font-specification:ScriptMTBold;writing-mode:lr-tb;fill:#000000;fill-opacity:1;fill-rule:nonzero;stroke:none"
       id="text34"><tspan
         x="0"
         y="0"
         id="tspan32">l</tspan></text>
<g
       id="g36"><g
         id="g38"
         clip-path="url(#clipPath42)"><g
           id="g44"
           transform="translate(129.7334,104.417)"><path
             d="m 0,0 c 0,-0.824 -0.668,-1.492 -1.491,-1.492 -0.824,0 -1.492,0.668 -1.492,1.492 0,0.823 0.668,1.491 1.492,1.491 C -0.668,1.491 0,0.823 0,0"
             style="fill:#000000;fill-opacity:1;fill-rule:nonzero;stroke:none"
             id="path46"
             inkscape:connector-curvature="0" /></g></g></g><text
       transform="matrix(1,0,0,-1,125.9966,107.0674)"
       style="font-variant:normal;font-weight:normal;font-stretch:normal;font-size:12px;font-family:'Myriad Pro';-inkscape-font-specification:MyriadPro-Regular;writing-mode:lr-tb;fill:#000000;fill-opacity:1;fill-rule:nonzero;stroke:none"
       id="text50"><tspan
         x="0"
         y="0"
         id="tspan48">P</tspan></text>
<g
       id="g52"><g
         id="g54"
         clip-path="url(#clipPath58)"><g
           id="g60"
           transform="translate(81.7012,112.7695)"><path
             d="m 0,0 c 0,-0.823 -0.667,-1.491 -1.491,-1.491 -0.823,0 -1.491,0.668 -1.491,1.491 0,0.824 0.668,1.492 1.491,1.492 C -0.667,1.492 0,0.824 0,0"
             style="fill:#000000;fill-opacity:1;fill-rule:nonzero;stroke:none"
             id="path62"
             inkscape:connector-curvature="0" /></g></g></g><text
       transform="matrix(1,0,0,-1,80.21,115.7539)"
       style="font-variant:normal;font-weight:normal;font-stretch:normal;font-size:12px;font-family:'Myriad Pro';-inkscape-font-specification:MyriadPro-Regular;writing-mode:lr-tb;fill:#000000;fill-opacity:1;fill-rule:nonzero;stroke:none"
       id="text66"><tspan
         x="0"
         y="0"
         id="tspan64">S</tspan></text>
<g
       id="g68"><g
         id="g70"
         clip-path="url(#clipPath74)"><g
           id="g76"
           transform="translate(71.8564,144.6914)"><path
             d="M 0,0 C 0,0 0.597,-21.479 8.354,-31.922 16.11,-42.363 116.351,-73.688 145.885,-75.18"
             style="fill:none;stroke:#000000;stroke-width:1;stroke-linecap:butt;stroke-linejoin:miter;stroke-miterlimit:4;stroke-dasharray:none;stroke-opacity:1"
             id="path78"
             inkscape:connector-curvature="0" /></g></g></g><text
       transform="matrix(1,0,0,-1,204.3164,72.7939)"
       style="font-variant:normal;font-weight:bold;font-stretch:normal;font-size:12px;font-family:'Script MT Bold';-inkscape-font-specification:ScriptMTBold;writing-mode:lr-tb;fill:#000000;fill-opacity:1;fill-rule:nonzero;stroke:none"
       id="text82"><tspan
         x="0"
         y="0"
         id="tspan80">m</tspan></text>
<g
       id="g84"><g
         id="g86"
         clip-path="url(#clipPath90)"><g
           id="g92"
           transform="translate(73.3477,142.0068)"><path
             d="m 0,0 c 0,-0.824 -0.667,-1.492 -1.491,-1.492 -0.823,0 -1.491,0.668 -1.491,1.492 0,0.823 0.668,1.491 1.491,1.491 C -0.667,1.491 0,0.823 0,0"
             style="fill:#000000;fill-opacity:1;fill-rule:nonzero;stroke:none"
             id="path94"
             inkscape:connector-curvature="0" /></g></g></g><text
       transform="matrix(1,0,0,-1,62.9258,138.8506)"
       style="font-variant:normal;font-weight:normal;font-stretch:normal;font-size:12px;font-family:'Myriad Pro';-inkscape-font-specification:MyriadPro-Regular;writing-mode:lr-tb;fill:#000000;fill-opacity:1;fill-rule:nonzero;stroke:none"
       id="text98"><tspan
         x="0"
         y="0"
         id="tspan96">T</tspan></text>
<g
       id="g100"><g
         id="g102"
         clip-path="url(#clipPath106)"><g
           id="g108"
           transform="translate(50.0146,129.0068)"><path
             d="m 0,0 c 0,-0.824 -0.667,-1.492 -1.491,-1.492 -0.823,0 -1.491,0.668 -1.491,1.492 0,0.823 0.668,1.491 1.491,1.491 C -0.667,1.491 0,0.823 0,0"
             style="fill:#000000;fill-opacity:1;fill-rule:nonzero;stroke:none"
             id="path110"
             inkscape:connector-curvature="0" /></g></g></g><text
       transform="matrix(1,0,0,-1,45.2598,132.8506)"
       style="font-variant:normal;font-weight:normal;font-stretch:normal;font-size:12px;font-family:'Myriad Pro';-inkscape-font-specification:MyriadPro-Regular;writing-mode:lr-tb;fill:#000000;fill-opacity:1;fill-rule:nonzero;stroke:none"
       id="text114"><tspan
         x="0"
         y="0"
         id="tspan112">U</tspan></text>
</g></svg>